<svg width="36" height="39" viewBox="0 0 36 39" fill="none" xmlns="http://www.w3.org/2000/svg">
<path d="M7.70945 27.666C8.89958 28.9659 10.3454 30.0276 11.9487 30.7818C13.5617 31.5359 15.3322 31.9626 17.1321 32.0321C18.9321 32.1015 20.7615 31.8138 22.4828 31.1688C24.1942 30.5337 25.7974 29.5414 27.1646 28.2614C28.5318 26.9813 29.6531 25.4333 30.4301 23.7067C31.217 21.9801 31.6694 20.0749 31.7383 18.1499C31.8071 16.2149 31.5022 14.2601 30.8235 12.4243C30.1449 10.5886 29.1023 8.88182 27.7646 7.42314C26.4171 5.96447 24.7844 4.77371 22.9746 3.94018C21.1648 3.10666 19.1681 2.63035 17.142 2.56089C15.1158 2.49143 13.0699 2.81889 11.152 3.55319C9.234 4.27757 7.44388 5.39886 5.92917 6.82776C4.41446 8.26659 3.16532 10.0031 2.28994 11.9381C1.41455 13.8731 0.922764 15.9966 0.853914 18.1499C0.785064 20.3031 1.13915 22.4763 1.89651 24.5204C2.65386 26.5645 3.82432 28.4598 5.32919 30.0673L7.70945 27.666ZM5.31936 30.0773C3.72596 28.569 2.40797 26.7332 1.50308 24.6891C0.588348 22.6549 0.0768876 20.4222 0.00803719 18.1499C-0.0608133 15.8874 0.312946 13.5952 1.11948 11.4519C1.92601 9.30851 3.15549 7.31399 4.72921 5.62709C6.30293 3.94018 8.22091 2.55097 10.3454 1.58844C12.47 0.625916 14.7912 0.0801534 17.142 0.0106927C19.4927 -0.058768 21.873 0.33815 24.1057 1.19152C26.3384 2.0449 28.4039 3.35473 30.1547 5.02179C31.9055 6.68884 33.3415 8.71313 34.3447 10.9656C35.348 13.2082 35.8988 15.6691 35.9676 18.1499C36.0365 20.6306 35.6234 23.151 34.7283 25.5028C33.8431 27.8545 32.4759 30.0376 30.7448 31.8832C29.0137 33.7289 26.9089 35.2471 24.5778 36.289C22.2467 37.3409 19.7091 37.9263 17.1321 37.9958C14.565 38.0652 11.9585 37.6286 9.52907 36.686C7.0898 35.7532 4.8374 34.3044 2.92926 32.4885L5.31936 30.0773Z" fill="white"/>
<path d="M17.9972 23.0029C20.2048 23.0029 21.9944 21.2121 21.9944 19.0029C21.9944 16.7938 20.2048 15.0029 17.9972 15.0029C15.7896 15.0029 14 16.7938 14 19.0029C14 21.2121 15.7896 23.0029 17.9972 23.0029Z" fill="white"/>
</svg>
